<?xml version="1.0" encoding="UTF-8" standalone="no"?>
<!DOCTYPE svg PUBLIC "-//W3C//DTD SVG 1.1//EN"
 "http://www.w3.org/Graphics/SVG/1.1/DTD/svg11.dtd">
<!-- Generated by graphviz version 2.43.0 (0)
 -->
<!-- Title: GVmap Pages: 1 -->
<svg width="1256pt" height="187pt"
 viewBox="0.00 0.00 1256.00 187.00" xmlns="http://www.w3.org/2000/svg" xmlns:xlink="http://www.w3.org/1999/xlink">
<g id="graph0" class="graph" transform="scale(1 1) rotate(0) translate(4 183)">
<title>GVmap</title>
<polygon fill="white" stroke="transparent" points="-4,4 -4,-183 1252,-183 1252,4 -4,4"/>
<text text-anchor="middle" x="624" y="-7.8" font-family="Times,serif" font-size="14.00">ivoa data model</text>
<!-- ivoa:Unit -->
<g id="node1" class="node">
<title>ivoa:Unit</title>
<g id="a_node1"><a xlink:href="../ivoa/Unit" xlink:title="{&amp;lt;&amp;lt;primitive type&amp;gt;&amp;gt;\nUnit}">
<polygon fill="#8dd3c7" stroke="black" points="0,-139 0,-175 98,-175 98,-139 0,-139"/>
<text text-anchor="middle" x="49" y="-159.6" font-family="Times,serif" font-size="8.00">&lt;&lt;primitive type&gt;&gt;</text>
<text text-anchor="middle" x="49" y="-150.6" font-family="Times,serif" font-size="8.00">Unit</text>
</a>
</g>
</g>
<!-- ivoa:string -->
<g id="node10" class="node">
<title>ivoa:string</title>
<g id="a_node10"><a xlink:href="../ivoa/string" xlink:title="{&amp;lt;&amp;lt;primitive type&amp;gt;&amp;gt;\nstring}">
<polygon fill="#8dd3c7" stroke="black" points="58,-59 58,-95 156,-95 156,-59 58,-59"/>
<text text-anchor="middle" x="107" y="-79.6" font-family="Times,serif" font-size="8.00">&lt;&lt;primitive type&gt;&gt;</text>
<text text-anchor="middle" x="107" y="-70.6" font-family="Times,serif" font-size="8.00">string</text>
</a>
</g>
</g>
<!-- ivoa:Unit&#45;&gt;ivoa:string -->
<g id="edge1" class="edge">
<title>ivoa:Unit&#45;&gt;ivoa:string</title>
<path fill="none" stroke="red" d="M61.87,-138.69C69.61,-128.29 79.58,-114.87 88.19,-103.29"/>
<polygon fill="none" stroke="red" points="91.01,-105.38 94.16,-95.26 85.39,-101.2 91.01,-105.38"/>
</g>
<!-- ivoa:anyURI -->
<g id="node2" class="node">
<title>ivoa:anyURI</title>
<g id="a_node2"><a xlink:href="../ivoa/anyURI" xlink:title="{&amp;lt;&amp;lt;primitive type&amp;gt;&amp;gt;\nanyURI}">
<polygon fill="#8dd3c7" stroke="black" points="116,-139 116,-175 214,-175 214,-139 116,-139"/>
<text text-anchor="middle" x="165" y="-159.6" font-family="Times,serif" font-size="8.00">&lt;&lt;primitive type&gt;&gt;</text>
<text text-anchor="middle" x="165" y="-150.6" font-family="Times,serif" font-size="8.00">anyURI</text>
</a>
</g>
</g>
<!-- ivoa:anyURI&#45;&gt;ivoa:string -->
<g id="edge2" class="edge">
<title>ivoa:anyURI&#45;&gt;ivoa:string</title>
<path fill="none" stroke="red" d="M152.13,-138.69C144.39,-128.29 134.42,-114.87 125.81,-103.29"/>
<polygon fill="none" stroke="red" points="128.61,-101.2 119.84,-95.26 122.99,-105.38 128.61,-101.2"/>
</g>
<!-- ivoa:boolean -->
<g id="node3" class="node">
<title>ivoa:boolean</title>
<g id="a_node3"><a xlink:href="../ivoa/boolean" xlink:title="{&amp;lt;&amp;lt;primitive type&amp;gt;&amp;gt;\nboolean}">
<polygon fill="#8dd3c7" stroke="black" points="232,-139 232,-175 330,-175 330,-139 232,-139"/>
<text text-anchor="middle" x="281" y="-159.6" font-family="Times,serif" font-size="8.00">&lt;&lt;primitive type&gt;&gt;</text>
<text text-anchor="middle" x="281" y="-150.6" font-family="Times,serif" font-size="8.00">boolean</text>
</a>
</g>
</g>
<!-- ivoa:complex -->
<g id="node4" class="node">
<title>ivoa:complex</title>
<g id="a_node4"><a xlink:href="../ivoa/complex" xlink:title="{&amp;lt;&amp;lt;primitive type&amp;gt;&amp;gt;\ncomplex}">
<polygon fill="#8dd3c7" stroke="black" points="348,-139 348,-175 446,-175 446,-139 348,-139"/>
<text text-anchor="middle" x="397" y="-159.6" font-family="Times,serif" font-size="8.00">&lt;&lt;primitive type&gt;&gt;</text>
<text text-anchor="middle" x="397" y="-150.6" font-family="Times,serif" font-size="8.00">complex</text>
</a>
</g>
</g>
<!-- ivoa:datetime -->
<g id="node5" class="node">
<title>ivoa:datetime</title>
<g id="a_node5"><a xlink:href="../ivoa/datetime" xlink:title="{&amp;lt;&amp;lt;primitive type&amp;gt;&amp;gt;\ndatetime}">
<polygon fill="#8dd3c7" stroke="black" points="464,-139 464,-175 562,-175 562,-139 464,-139"/>
<text text-anchor="middle" x="513" y="-159.6" font-family="Times,serif" font-size="8.00">&lt;&lt;primitive type&gt;&gt;</text>
<text text-anchor="middle" x="513" y="-150.6" font-family="Times,serif" font-size="8.00">datetime</text>
</a>
</g>
</g>
<!-- ivoa:integer -->
<g id="node6" class="node">
<title>ivoa:integer</title>
<g id="a_node6"><a xlink:href="../ivoa/integer" xlink:title="{&amp;lt;&amp;lt;primitive type&amp;gt;&amp;gt;\ninteger}">
<polygon fill="#8dd3c7" stroke="black" points="580,-139 580,-175 678,-175 678,-139 580,-139"/>
<text text-anchor="middle" x="629" y="-159.6" font-family="Times,serif" font-size="8.00">&lt;&lt;primitive type&gt;&gt;</text>
<text text-anchor="middle" x="629" y="-150.6" font-family="Times,serif" font-size="8.00">integer</text>
</a>
</g>
</g>
<!-- ivoa:nonnegativeInteger -->
<g id="node7" class="node">
<title>ivoa:nonnegativeInteger</title>
<g id="a_node7"><a xlink:href="../ivoa/nonnegativeInteger" xlink:title="{&amp;lt;&amp;lt;primitive type&amp;gt;&amp;gt;\nnonnegativeInteger}">
<polygon fill="#8dd3c7" stroke="black" points="696,-139 696,-175 794,-175 794,-139 696,-139"/>
<text text-anchor="middle" x="745" y="-159.6" font-family="Times,serif" font-size="8.00">&lt;&lt;primitive type&gt;&gt;</text>
<text text-anchor="middle" x="745" y="-150.6" font-family="Times,serif" font-size="8.00">nonnegativeInteger</text>
</a>
</g>
</g>
<!-- ivoa:rational -->
<g id="node8" class="node">
<title>ivoa:rational</title>
<g id="a_node8"><a xlink:href="../ivoa/rational" xlink:title="{&amp;lt;&amp;lt;primitive type&amp;gt;&amp;gt;\nrational}">
<polygon fill="#8dd3c7" stroke="black" points="812,-139 812,-175 910,-175 910,-139 812,-139"/>
<text text-anchor="middle" x="861" y="-159.6" font-family="Times,serif" font-size="8.00">&lt;&lt;primitive type&gt;&gt;</text>
<text text-anchor="middle" x="861" y="-150.6" font-family="Times,serif" font-size="8.00">rational</text>
</a>
</g>
</g>
<!-- ivoa:real -->
<g id="node9" class="node">
<title>ivoa:real</title>
<g id="a_node9"><a xlink:href="../ivoa/real" xlink:title="{&amp;lt;&amp;lt;primitive type&amp;gt;&amp;gt;\nreal}">
<polygon fill="#8dd3c7" stroke="black" points="928,-139 928,-175 1026,-175 1026,-139 928,-139"/>
<text text-anchor="middle" x="977" y="-159.6" font-family="Times,serif" font-size="8.00">&lt;&lt;primitive type&gt;&gt;</text>
<text text-anchor="middle" x="977" y="-150.6" font-family="Times,serif" font-size="8.00">real</text>
</a>
</g>
</g>
<!-- ivoa:IntegerQuantity -->
<g id="node11" class="node">
<title>ivoa:IntegerQuantity</title>
<g id="a_node11"><a xlink:href="../ivoa/IntegerQuantity" xlink:title="{&amp;lt;&amp;lt;datatype&amp;gt;&amp;gt;\nIntegerQuantity|+value : ivoa:integer\l}">
<polygon fill="#8dd3c7" stroke="black" points="1044.5,-135.5 1044.5,-178.5 1143.5,-178.5 1143.5,-135.5 1044.5,-135.5"/>
<text text-anchor="middle" x="1094" y="-168.1" font-family="Times,serif" font-size="8.00">&lt;&lt;datatype&gt;&gt;</text>
<text text-anchor="middle" x="1094" y="-159.1" font-family="Times,serif" font-size="8.00">IntegerQuantity</text>
<polyline fill="none" stroke="black" points="1044.5,-152.5 1143.5,-152.5 "/>
<text text-anchor="start" x="1052.5" y="-142.1" font-family="Times,serif" font-size="8.00">+value : ivoa:integer</text>
</a>
</g>
</g>
<!-- ivoa:Quantity -->
<g id="node12" class="node">
<title>ivoa:Quantity</title>
<g id="a_node12"><a xlink:href="../ivoa/Quantity" xlink:title="{&amp;lt;&amp;lt;datatype&amp;gt;&amp;gt;\nQuantity|+unit : ivoa:Unit\l}">
<polygon fill="#8dd3c7" stroke="black" points="1107.5,-55.5 1107.5,-98.5 1190.5,-98.5 1190.5,-55.5 1107.5,-55.5"/>
<text text-anchor="middle" x="1149" y="-88.1" font-family="Times,serif" font-size="8.00">&lt;&lt;datatype&gt;&gt;</text>
<text text-anchor="middle" x="1149" y="-79.1" font-family="Times,serif" font-size="8.00">Quantity</text>
<polyline fill="none" stroke="black" points="1107.5,-72.5 1190.5,-72.5 "/>
<text text-anchor="start" x="1115.5" y="-62.1" font-family="Times,serif" font-size="8.00">+unit : ivoa:Unit</text>
</a>
</g>
</g>
<!-- ivoa:IntegerQuantity&#45;&gt;ivoa:Quantity -->
<g id="edge3" class="edge">
<title>ivoa:IntegerQuantity&#45;&gt;ivoa:Quantity</title>
<path fill="none" stroke="red" d="M1108.74,-135.1C1114.83,-126.46 1121.99,-116.3 1128.58,-106.96"/>
<polygon fill="none" stroke="red" points="1131.51,-108.88 1134.41,-98.69 1125.79,-104.85 1131.51,-108.88"/>
</g>
<!-- ivoa:RealQuantity -->
<g id="node13" class="node">
<title>ivoa:RealQuantity</title>
<g id="a_node13"><a xlink:href="../ivoa/RealQuantity" xlink:title="{&amp;lt;&amp;lt;datatype&amp;gt;&amp;gt;\nRealQuantity|+value : ivoa:real\l}">
<polygon fill="#8dd3c7" stroke="black" points="1162,-135.5 1162,-178.5 1248,-178.5 1248,-135.5 1162,-135.5"/>
<text text-anchor="middle" x="1205" y="-168.1" font-family="Times,serif" font-size="8.00">&lt;&lt;datatype&gt;&gt;</text>
<text text-anchor="middle" x="1205" y="-159.1" font-family="Times,serif" font-size="8.00">RealQuantity</text>
<polyline fill="none" stroke="black" points="1162,-152.5 1248,-152.5 "/>
<text text-anchor="start" x="1170" y="-142.1" font-family="Times,serif" font-size="8.00">+value : ivoa:real</text>
</a>
</g>
</g>
<!-- ivoa:RealQuantity&#45;&gt;ivoa:Quantity -->
<g id="edge4" class="edge">
<title>ivoa:RealQuantity&#45;&gt;ivoa:Quantity</title>
<path fill="none" stroke="red" d="M1189.99,-135.1C1183.79,-126.46 1176.5,-116.3 1169.8,-106.96"/>
<polygon fill="none" stroke="red" points="1172.53,-104.77 1163.85,-98.69 1166.84,-108.85 1172.53,-104.77"/>
</g>
</g>
</svg>
